<svg width="896" height="184" viewBox="0 0 896 184" fill="none" xmlns="http://www.w3.org/2000/svg">
<path d="M208.878 152.128V64.1882H179.308V48.3251H257.699V64.1882H227.821V152.128H208.878Z" fill="#08003D"/>
<path d="M311.135 107.157V134.109C311.135 142.015 311.545 148.021 312.367 152.128H295.272L293.886 143.812H293.424C288.29 150.486 280.897 153.822 271.246 153.822C264.059 153.822 258.309 151.615 253.997 147.2C249.787 142.785 247.682 137.549 247.682 131.491C247.682 122.25 251.584 115.217 259.387 110.391C267.19 105.463 278.125 103.05 292.191 103.153V101.921C292.191 98.5326 291.113 95.5037 288.957 92.8342C286.801 90.1647 282.797 88.8299 276.944 88.8299C269.347 88.8299 262.621 90.6781 256.769 94.3743L253.073 82.0535C260.26 77.6385 269.295 75.431 280.179 75.431C291.267 75.431 299.173 78.4085 303.896 84.3636C308.722 90.216 311.135 97.8139 311.135 107.157ZM292.653 125.792V115.474C275.199 115.268 266.472 119.94 266.472 129.489C266.472 132.98 267.447 135.649 269.398 137.497C271.451 139.345 274.07 140.27 277.252 140.27C280.949 140.27 284.08 139.294 286.647 137.343C289.317 135.29 291.165 132.826 292.191 129.951C292.499 129.027 292.653 127.641 292.653 125.792Z" fill="#08003D"/>
<path d="M320.347 148.432L324.197 134.571C330.049 138.267 336.415 140.115 343.294 140.115C351.303 140.115 355.307 137.292 355.307 131.645C355.307 129.181 354.434 127.179 352.689 125.638C350.943 124.098 347.709 122.456 342.986 120.71C329.228 116.09 322.349 108.8 322.349 98.8406C322.349 92.0641 324.916 86.4684 330.049 82.0535C335.286 77.6385 342.165 75.431 350.687 75.431C358.592 75.431 365.266 76.9198 370.708 79.8973L366.858 93.1422C362.032 90.2674 356.744 88.8299 350.995 88.8299C347.709 88.8299 345.142 89.6 343.294 91.1401C341.446 92.5775 340.522 94.477 340.522 96.8385C340.522 99.0973 341.446 100.945 343.294 102.383C345.142 103.82 348.582 105.463 353.613 107.311C360.492 109.673 365.523 112.702 368.706 116.398C371.889 119.991 373.532 124.56 373.634 130.105C373.634 137.189 370.965 142.888 365.626 147.2C360.287 151.512 352.791 153.668 343.14 153.668C334.207 153.668 326.61 151.923 320.347 148.432Z" fill="#08003D"/>
<path d="M568.053 153.822H567.899C557.016 153.822 548.032 150.332 540.948 143.35C533.863 136.368 530.321 126.973 530.321 115.166C530.321 103.05 533.914 93.3989 541.102 86.2117C548.289 79.0246 557.632 75.431 569.132 75.431C580.22 75.431 589.204 79.0246 596.083 86.2117C602.963 93.2962 606.402 102.537 606.402 113.934C606.402 120.607 605.273 126.563 603.014 131.799C600.858 137.035 597.932 141.245 594.235 144.428C590.642 147.508 586.586 149.87 582.068 151.512C577.653 153.052 572.982 153.822 568.053 153.822ZM568.362 140.115H568.516C573.957 140.115 578.372 137.754 581.76 133.031C585.149 128.205 586.843 121.994 586.843 114.396C586.843 107.722 585.303 101.869 582.222 96.8385C579.142 91.7048 574.625 89.1379 568.669 89.1379C562.406 89.1379 557.683 91.6535 554.501 96.6845C551.42 101.715 549.88 107.722 549.88 114.704C549.88 122.096 551.574 128.205 554.963 133.031C558.351 137.754 562.817 140.115 568.362 140.115Z" fill="#08003D"/>
<path d="M606.655 77.1251H626.06L633.761 111.161C635.814 119.889 637.457 128 638.689 135.495H638.997C639.51 132.723 641.513 124.663 645.003 111.315L654.86 77.1251H670.261L679.656 110.391C682.12 119.94 684.122 128.308 685.662 135.495H685.97C686.689 129.951 688.332 121.583 690.899 110.391L699.215 77.1251H717.851L694.287 152.128H676.73L667.797 121.634C665.538 114.036 663.639 106.028 662.099 97.6085H661.791C660.353 105.617 658.454 113.626 656.092 121.634L646.544 152.128H628.832L606.655 77.1251Z" fill="#08003D"/>
<path d="M724.631 48.3251H743.574V89.908H787.467V48.3251H806.41V152.128H787.467V106.387H743.574V152.128H724.631V48.3251Z" fill="#08003D"/>
<path d="M821.946 152.128V49.8652C829.955 48.3251 839.503 47.5551 850.592 47.5551C865.275 47.5551 875.953 50.3273 882.626 55.8716C888.581 60.9027 891.559 67.8845 891.559 76.8171C891.559 83.1829 889.711 88.6246 886.015 93.1422C882.421 97.6599 877.955 100.843 872.616 102.691V103.153C879.598 105.72 884.423 112.394 887.093 123.174C891.713 140.834 894.434 150.486 895.255 152.128H875.85C873.899 148.227 871.589 140.064 868.919 127.641C867.379 120.967 865.223 116.347 862.451 113.78C859.781 111.11 855.726 109.673 850.284 109.467H840.735V152.128H821.946ZM840.735 62.8021V95.6064H851.978C858.344 95.6064 863.375 94.0663 867.071 90.9861C870.768 87.9059 872.616 83.7476 872.616 78.5112C872.616 73.0695 870.819 68.9625 867.225 66.1904C863.734 63.3155 858.806 61.8781 852.44 61.8781C847.101 61.8781 843.2 62.1861 840.735 62.8021Z" fill="#08003D"/>
<path d="M77.964 170.593C94.5719 158.514 115.863 154.801 135.598 160.542C140.911 162.088 145.775 157.032 144.02 151.787L137.754 133.052C136.423 129.071 133.047 126.066 128.877 125.567C128.405 125.51 127.932 125.457 127.459 125.407C113.919 123.983 100.275 125.355 87.3731 129.373C78.9728 131.99 69.4283 126.249 69.4283 117.455V81.4872C69.4283 78.9776 68.6134 76.5358 67.106 74.5287L48.0528 49.1576C45.862 46.2405 42.4253 44.5239 38.7758 44.5239H11.6096C3.51797 44.5239 -2.08723 52.5952 0.743205 60.1711L4.44662 70.0836C6.14001 74.6161 10.4719 77.6209 15.313 77.6209H24.6886C31.0947 77.6209 36.2878 82.8109 36.2878 89.2132V163.046C36.2878 166.121 37.5102 169.07 39.6861 171.244L48.4234 179.974C52.4604 184.008 58.8338 184.506 63.4495 181.15L77.964 170.593Z" fill="#5B45E5"/>
<path fill-rule="evenodd" clip-rule="evenodd" d="M94.2665 15.326C94.2665 10.4929 91.266 6.16688 86.7374 4.47092L76.7953 0.747581C69.2128 -2.09208 61.126 3.51014 61.126 11.6027V40.6576C61.126 43.1672 61.9409 45.609 63.4483 47.6162L82.5015 72.9866C84.6922 75.9037 88.1289 77.6203 91.7784 77.6203H118.95C127.05 77.6203 132.656 69.534 129.81 61.9551L126.088 52.0432C124.389 47.5201 120.062 44.5239 115.228 44.5239H105.866C99.4596 44.5239 94.2665 39.3339 94.2665 32.9317V15.326Z" fill="#5B45E5"/>
<path d="M401.971 42.6267V110.083H402.279C404.23 107.003 406.181 104.077 408.131 101.305L426.459 77.1251H457.382V73.8909C457.382 63.5208 461.079 55.2556 468.471 49.0952C475.042 43.7561 483.872 41.0866 494.961 41.0866C505.228 41.0866 513.904 42.9861 520.989 46.785V152.128H502.045V57.1037C499.992 55.9743 496.706 55.4096 492.189 55.4096C486.644 55.4096 482.589 57.1037 480.022 60.492C477.455 63.8802 476.172 68.2952 476.172 73.7369V77.1251H491.573V91.2941H476.326V152.128H457.382V91.2941H447.218V79.3621L421.376 107.773L453.103 152.128H429.847L408.285 119.016L401.971 126.563V152.128H383.028V42.6267H401.971Z" fill="#08003D"/>
</svg>
