<svg width="120" height="153" viewBox="0 0 120 153" fill="none" xmlns="http://www.w3.org/2000/svg">
<path d="M64.7968 141.782C78.5998 131.743 96.2946 128.657 112.697 133.428C117.113 134.713 121.155 130.511 119.697 126.152L114.489 110.581C113.382 107.272 110.577 104.775 107.111 104.36C106.718 104.313 106.326 104.269 105.933 104.227C94.6795 103.044 83.3395 104.184 72.6168 107.523C65.6351 109.698 57.7026 104.927 57.7026 97.6185V67.7249C57.7026 65.6392 57.0253 63.6098 55.7726 61.9416L39.9372 40.8555C38.1165 38.431 35.2602 37.0043 32.227 37.0043H9.64887C2.92383 37.0043 -1.73472 43.7124 0.617685 50.0089L3.69563 58.2473C5.10303 62.0143 8.70335 64.5116 12.7268 64.5116H20.519C25.8431 64.5116 30.1592 68.8251 30.1592 74.146V135.51C30.1592 138.065 31.1752 140.516 32.9835 142.323L40.2453 149.579C43.6004 152.931 48.8975 153.345 52.7335 150.555L64.7968 141.782Z" fill="white"/>
<path fill-rule="evenodd" clip-rule="evenodd" d="M78.3459 12.7377C78.3459 8.72074 75.8522 5.12536 72.0884 3.71583L63.8254 0.621323C57.5235 -1.73875 50.8025 2.91731 50.8025 9.64314V33.791C50.8025 35.8767 51.4798 37.9062 52.7326 39.5743L68.5679 60.66C70.3887 63.0844 73.2449 64.5111 76.278 64.5111H98.8608C105.593 64.5111 110.252 57.7905 107.886 51.4916L104.793 43.2537C103.381 39.4945 99.7851 37.0043 95.7675 37.0043H87.9861C82.662 37.0043 78.3459 32.6909 78.3459 27.3699V12.7377Z" fill="white"/>
</svg>
